HIERARCHY
ROOT Hips
{
 OFFSET 0.000000 0.000000 0.000000
 CHANNELS 6 Xposition Yposition Zposition Yrotation Xrotation Zrotation
 JOINT Chest
 {
  OFFSET 0.000000 8.777825 -6.552462
  CHANNELS 3 Yrotation Xrotation Zrotation
  JOINT Chest2
  {
   OFFSET 0.000000 7.383841 -0.000881
   CHANNELS 3 Yrotation Xrotation Zrotation
   JOINT Chest3
   {
    OFFSET 0.000000 10.555540 0.000455
    CHANNELS 3 Yrotation Xrotation Zrotation
    JOINT Chest4
    {
     OFFSET 0.000000 10.885962 0.000501
     CHANNELS 3 Yrotation Xrotation Zrotation
     JOINT Neck
     {
      OFFSET 0.000000 17.548373 -0.000425
      CHANNELS 3 Yrotation Xrotation Zrotation
      JOINT Head
      {
       OFFSET 0.000000 9.021468 0.000000
       CHANNELS 3 Yrotation Xrotation Zrotation
       End Site
       {
        OFFSET 0.000000 13.152816 0.000000
       }
      }
     }
     JOINT RightCollar
     {
      OFFSET -2.801089 10.967333 -0.000212
      CHANNELS 3 Yrotation Xrotation Zrotation
      JOINT RightShoulder
      {
       OFFSET -15.865440 0.000000 0.000000
       CHANNELS 3 Yrotation Xrotation Zrotation
       JOINT RightElbow
       {
        OFFSET -26.521401 0.000000 0.000000
        CHANNELS 3 Yrotation Xrotation Zrotation
        JOINT RightWrist
        {
         OFFSET -23.907282 0.000000 -0.001304
         CHANNELS 3 Yrotation Xrotation Zrotation
         End Site
         {
          OFFSET -17.515647 0.653783 0.097580
         }
        }
       }
      }
     }
     JOINT LeftCollar
     {
      OFFSET 2.801089 10.967333 -0.000212
      CHANNELS 3 Yrotation Xrotation Zrotation
      JOINT LeftShoulder
      {
       OFFSET 15.865440 0.000000 0.000000
       CHANNELS 3 Yrotation Xrotation Zrotation
       JOINT LeftElbow
       {
        OFFSET 26.521401 0.000000 0.000000
        CHANNELS 3 Yrotation Xrotation Zrotation
        JOINT LeftWrist
        {
         OFFSET 23.907282 0.000000 -0.001304
         CHANNELS 3 Yrotation Xrotation Zrotation
         End Site
         {
          OFFSET 17.515647 0.653783 0.097580
         }
        }
       }
      }
     }
    }
   }
  }
 }
 JOINT RightHip
 {
  OFFSET -9.477029 -0.000305 0.000048
  CHANNELS 3 Yrotation Xrotation Zrotation
  JOINT RightKnee
  {
   OFFSET 0.000000 -47.500497 0.009605
   CHANNELS 3 Yrotation Xrotation Zrotation
   JOINT RightAnkle
   {
    OFFSET 0.000000 -41.890050 0.114765
    CHANNELS 3 Yrotation Xrotation Zrotation
    JOINT RightToe
    {
     OFFSET 0.000000 -8.242463 17.660639
     CHANNELS 3 Yrotation Xrotation Zrotation
     End Site
     {
      OFFSET 0.000000 -1.027352 5.005374
     }
    }
   }
  }
 }
 JOINT LeftHip
 {
  OFFSET 9.477029 -0.002494 0.000395
  CHANNELS 3 Yrotation Xrotation Zrotation
  JOINT LeftKnee
  {
   OFFSET 0.000000 -47.500497 0.009605
   CHANNELS 3 Yrotation Xrotation Zrotation
   JOINT LeftAnkle
   {
    OFFSET 0.000000 -41.890050 0.114765
    CHANNELS 3 Yrotation Xrotation Zrotation
    JOINT LeftToe
    {
     OFFSET 0.000000 -8.242463 17.660639
     CHANNELS 3 Yrotation Xrotation Zrotation
     End Site
     {
      OFFSET 0.000000 -1.027352 5.005374
     }
    }
   }
  }
 }
}
MOTION
Frames: 5
Frame Time: 0.004167
7.802123 99.089161 233.608787 0.572013 -1.916402 -5.811837 -0.783393 6.291191 0.734690 -0.458553 -10.442280 0.377864 -0.315501 1.668756 0.197618 -0.080844 9.932920 0.058645 -0.975735 2.155562 1.108262 -1.780253 4.017705 2.030573 -1.041005 -4.309325 7.810987 -0.430629 -8.865319 64.137137 3.730961 1.445007 1.081863 2.615150 -1.939635 7.830304 -2.486622 -7.987400 -8.068851 6.738700 2.561986 -72.230469 -2.512246 3.068444 -3.001259 -1.867856 -1.950897 -10.815570 -9.731164 -36.670628 2.605221 -4.590157 15.519955 -0.366705 6.864433 -6.051306 8.158697 0.000000 -0.000000 0.000000 9.911822 -7.318021 -1.516406 2.725561 15.662350 1.141522 -1.875661 -7.282707 4.342688 0.000000 -0.000000 -0.000000
7.787327 99.091773 233.657004 0.503550 -1.901095 -5.822639 -0.764740 6.283923 0.739545 -0.450124 -10.446761 0.379673 -0.309685 1.666182 0.200107 -0.079072 9.932706 0.059340 -0.967537 2.136972 1.106569 -1.765328 3.983039 2.027896 -1.030974 -4.305621 7.804920 -0.361217 -8.908501 64.097707 3.750836 1.534471 1.090746 2.594243 -1.922393 7.845048 -2.468429 -7.998748 -8.070505 6.797695 2.565430 -72.214052 -2.523058 2.984091 -3.011057 -1.862628 -1.954716 -10.855367 -9.724731 -36.513614 2.605733 -4.466758 15.801712 -0.400521 6.916813 -6.085458 8.196633 -0.000000 -0.000000 0.000000 9.907912 -7.332776 -1.496772 2.779242 15.712736 1.173701 -1.858436 -7.334827 4.297168 0.000000 -0.000000 -0.000000
7.772263 99.094561 233.704800 0.437299 -1.884750 -5.832211 -0.747341 6.276150 0.743448 -0.442191 -10.451536 0.381058 -0.304212 1.663430 0.202226 -0.077414 9.932467 0.059930 -0.959681 2.118711 1.104946 -1.751031 3.948992 2.025331 -1.022005 -4.302255 7.798460 -0.295901 -8.950331 64.060148 3.776294 1.621135 1.100776 2.574314 -1.905036 7.857932 -2.450379 -8.011032 -8.072091 6.855659 2.569891 -72.195852 -2.534460 2.898845 -3.021589 -1.854897 -1.958302 -10.896283 -9.719596 -36.356857 2.603983 -4.342688 16.092709 -0.435816 6.968157 -6.116764 8.230594 -0.000000 -0.000000 0.000000 9.906234 -7.347133 -1.478545 2.828071 15.760019 1.204386 -1.840214 -7.384286 4.251677 0.000000 -0.000000 0.000000
7.756887 99.097507 233.752127 0.374077 -1.867097 -5.840341 -0.731338 6.267719 0.746260 -0.434806 -10.456695 0.381955 -0.299116 1.660446 0.203923 -0.075882 9.932196 0.060399 -0.952352 2.100903 1.103343 -1.737706 3.915794 2.022777 -1.014510 -4.299383 7.791571 -0.236952 -8.990367 64.025284 3.808555 1.703651 1.112165 2.555664 -1.887505 7.868097 -2.432800 -8.024445 -8.073785 6.911461 2.575536 -72.175827 -2.545980 2.813828 -3.032196 -1.843920 -1.961520 -10.937411 -9.715081 -36.200494 2.598907 -4.219003 16.391063 -0.472615 7.015988 -6.144566 8.258440 -0.000000 0.000000 0.000000 9.907401 -7.360576 -1.462000 2.869873 15.802776 1.232785 -1.820191 -7.431026 4.206870 -0.000000 -0.000000 0.000000
7.741153 99.100595 233.798933 0.314700 -1.847869 -5.846811 -0.716876 6.258475 0.747838 -0.428024 -10.462329 0.382300 -0.294435 1.657176 0.205146 -0.074491 9.931887 0.060732 -0.945735 2.083668 1.101706 -1.725698 3.883673 2.020131 -1.008904 -4.297162 7.784215 -0.186644 -9.028165 63.993944 3.848838 1.780668 1.125123 2.538590 -1.869740 7.874688 -2.416023 -8.039181 -8.075766 6.963971 2.582536 -72.153931 -2.557153 2.730160 -3.042216 -1.828957 -1.964233 -10.977842 -9.710523 -36.044664 2.589459 -4.096762 16.694894 -0.510943 7.057790 -6.168191 8.278085 -0.000000 -0.000000 0.000000 9.912024 -7.372588 -1.447417 2.902471 15.839583 1.258102 -1.797566 -7.474990 4.163399 -0.000000 -0.000000 0.000000
